# xmcd
#
# Track frame offsets:
#	150
#	17969
#	35590
#	52318
#	70114
#	85586
#	101624
#	118056
#	138108
#	156770
#	175516
#	191098
#	206685
#	225230
#	245547
#
# Disc length: 3479 seconds
#
# Revision: 0
# Processed by: cddbd v1.5.1PL0 Copyright (c) Steve Scherf et al.
# Submitted via: dBpowerAMP V4.0
#
DISCID=c60d950f
DTITLE=Celine Dion - One Heart
DYEAR=2004
DGENRE=Blues
TTITLE0=I Drove All Night
TTITLE1=Love Is All We Need
TTITLE2=Faith
TTITLE3=In Hi Touch
TTITLE4=One Heart
TTITLE5=Stand By Your Side
TTITLE6=NKD
TTITLE7=Sorry For Love
TTITLE8=Have You Ever Been In Love
TTITLE9=Reveal
TTITLE10=Coulda Woulda Shoulda
TTITLE11=Coulda Woulda Shoulda
TTITLE12=Forget Me Not
TTITLE13=I Know What Love Is
TTITLE14=Je T'aime Encore
EXTD=Achraf El Gheriany
EXTT0=
EXTT1=
EXTT2=
EXTT3=
EXTT4=
EXTT5=
EXTT6=
EXTT7=
EXTT8=
EXTT9=
EXTT10=
EXTT11=
EXTT12=
EXTT13=
EXTT14=
PLAYORDER=
